<svg width="80" height="43" fill="none" xmlns="http://www.w3.org/2000/svg"><path d="M12.4 13.33h.002c1.998 0 3.596 1.576 3.596 3.492v.003c0 1.916-1.598 3.492-3.596 3.492h-.003c-1.998 0-3.596-1.576-3.596-3.492v-.003c0-1.916 1.598-3.491 3.596-3.491zM19.867 27.807c-.167.026-.316.047-.444.065V11.555c.007-2.926 1.202-5.734 3.33-7.807C24.881 1.675 27.768.506 30.783.5c3.013.007 5.899 1.177 8.026 3.25 2.126 2.073 3.321 4.88 3.328 7.805 0 0 0 0 0 0v.002s0 0 0 0c-.002 6.823-5.65 10.925-11.548 13.345-2.927 1.2-5.859 1.962-8.063 2.423a49.04 49.04 0 01-2.659.482zM7.75 36.541a2.694 2.694 0 01-.974-.39 2.619 2.619 0 01-.983-1.168 2.555 2.555 0 01-.152-1.511 2.59 2.59 0 01.732-1.336c.373-.364.846-.61 1.36-.71a2.714 2.714 0 011.53.148c.485.195.9.527 1.195.956.294.429.451.934.451 1.452m-3.16 2.559v.054h.5a2.71 2.71 0 001.016-.197c.323-.13.616-.322.864-.565.248-.242.445-.53.579-.848.134-.318.202-.659.201-1.003m-3.16 2.559c.164.03.332.046.5.046v-.492l-.5.446zm3.16-2.559h-.5l.5-.002v.002zm4.955-11.156l.134-.02v11.178a7.46 7.46 0 01-2.272 5.32 7.884 7.884 0 01-5.477 2.22 7.884 7.884 0 01-5.478-2.22A7.46 7.46 0 01.5 33.981c0-4.646 3.844-7.463 7.939-9.143 2.025-.831 4.056-1.359 5.584-1.678a33.88 33.88 0 011.841-.335z" fill="#AFB1B8" stroke="#AFB1B8"/><path d="M25.09 34.781h-1.688v1.743h-.88V32.26H25.3v.712h-1.898v1.101h1.687v.71zm4.224-.293c0 .42-.075.788-.223 1.105-.148.316-.361.56-.639.732a1.755 1.755 0 01-.949.258c-.353 0-.669-.085-.946-.255a1.695 1.695 0 01-.645-.726 2.511 2.511 0 01-.231-1.09V34.3c0-.42.075-.79.226-1.108.152-.32.366-.565.641-.735.277-.172.594-.258.95-.258.355 0 .67.086.946.258.277.17.49.415.641.735.152.319.229.687.229 1.105v.19zm-.89-.193c0-.447-.081-.787-.241-1.02a.783.783 0 00-.686-.348.782.782 0 00-.682.346c-.16.228-.242.564-.244 1.007v.208c0 .436.08.774.24 1.014.16.24.391.36.692.36a.775.775 0 00.68-.345c.158-.233.238-.57.24-1.014v-.208zm3.74 1.11a.447.447 0 00-.176-.38c-.117-.09-.328-.184-.632-.282a4.565 4.565 0 01-.724-.293c-.484-.262-.727-.614-.727-1.057 0-.23.065-.436.194-.616.13-.181.317-.323.56-.425.244-.101.517-.152.82-.152.304 0 .576.056.814.167.239.11.423.265.554.466.133.201.2.43.2.686h-.88c0-.196-.061-.347-.184-.454-.123-.11-.296-.165-.519-.165-.215 0-.382.046-.5.138a.426.426 0 00-.18.358c0 .138.07.254.208.348.141.094.347.182.619.264.5.15.864.337 1.092.56.229.222.343.5.343.831 0 .37-.14.66-.419.87-.28.21-.655.314-1.128.314-.328 0-.627-.06-.896-.179a1.438 1.438 0 01-.618-.495 1.27 1.27 0 01-.211-.726h.881c0 .47.282.706.844.706.21 0 .372-.042.49-.126a.418.418 0 00.175-.358zm4.69-2.434h-1.306v3.553h-.879v-3.553H33.38v-.712h3.475v.712zm3.071 1.705h-1.688v1.142h1.981v.706h-2.86V32.26h2.854v.712h-1.975v1.016h1.688v.689zm2.388.287h-.7v1.561h-.88V32.26h1.586c.503 0 .892.112 1.166.337.273.224.41.542.41.952 0 .29-.064.534-.19.73a1.282 1.282 0 01-.572.462l.923 1.743v.041h-.944l-.8-1.561zm-.7-.712h.709c.22 0 .391-.056.512-.167a.607.607 0 00.182-.466c0-.201-.058-.36-.173-.474-.113-.116-.288-.173-.524-.173h-.707v1.28zm5.326.77v1.503h-.88V32.26h1.665c.32 0 .601.058.844.176.244.117.431.284.562.5.131.215.196.46.196.736 0 .418-.143.748-.43.99-.285.24-.68.36-1.187.36h-.77zm0-.711h.785c.232 0 .409-.055.53-.165.123-.109.185-.265.185-.468a.704.704 0 00-.185-.507c-.123-.129-.293-.195-.51-.2h-.805v1.34zm5.56.366h-1.687v1.142h1.98v.706h-2.86V32.26h2.854v.712h-1.974v1.016h1.687v.689zm4.078-1.705h-1.306v3.553h-.88v-3.553h-1.288v-.712h3.474v.712zm3.07 1.705H57.96v1.142h1.98v.706h-2.859V32.26h2.854v.712H57.96v1.016h1.688v.689zm2.388.287h-.7v1.561h-.879V32.26h1.585c.504 0 .893.112 1.166.337.274.224.41.542.41.952 0 .29-.063.534-.19.73a1.283 1.283 0 01-.571.462l.922 1.743v.041h-.943l-.8-1.561zm-.7-.712h.71c.22 0 .39-.056.512-.167a.607.607 0 00.181-.466c0-.201-.057-.36-.172-.474-.114-.116-.288-.173-.525-.173h-.706v1.28zm5.165 1.154a.447.447 0 00-.176-.38c-.117-.09-.328-.184-.632-.282a4.56 4.56 0 01-.724-.293c-.484-.262-.727-.614-.727-1.057 0-.23.065-.436.194-.616.13-.181.317-.323.56-.425.243-.101.517-.152.82-.152.304 0 .576.056.814.167.238.11.423.265.554.466.133.201.199.43.199.686h-.879c0-.196-.061-.347-.184-.454-.124-.11-.296-.165-.519-.165-.215 0-.382.046-.501.138a.426.426 0 00-.179.358c0 .138.07.254.208.348.141.094.347.182.618.264.5.15.865.337 1.093.56.229.222.343.5.343.831 0 .37-.14.66-.419.87-.28.21-.655.314-1.128.314-.328 0-.627-.06-.896-.179a1.439 1.439 0 01-.618-.495 1.27 1.27 0 01-.211-.726h.881c0 .47.282.706.844.706.21 0 .372-.042.49-.126a.418.418 0 00.175-.358z" fill="#AFB1B8"/><path d="M25.09 34.781v1h1v-1h-1zm-1.688 0v-1h-1v1h1zm0 1.743v1h1v-1h-1zm-.88 0h-1v1h1v-1zm0-4.265v-1h-1v1h1zm2.778 0h1v-1h-1v1zm0 .712v1h1v-1h-1zm-1.898 0v-1h-1v1h1zm0 1.101h-1v1h1v-1zm1.687 0h1v-1h-1v1zm0-.29h-1.687v2h1.687v-2zm-2.687 1v1.742h2v-1.743h-2zm1 .742h-.88v2h.88v-2zm.12 1V32.26h-2v4.265h2zm-1-3.265H25.3v-2h-2.777v2zm1.778-1v.712h2v-.712h-2zm1-.288h-1.898v2H25.3v-2zm-2.898 1v1.101h2v-1.101h-2zm1 2.101h1.687v-2h-1.687v2zm.687-1v.71h2v-.71h-2zm4.363 2.253l-.526-.85-.003.002.53.848zm-2.54-.723l-.9.433v.003l.9-.436zm-.231-1.09h-1v.005l1-.005zm.226-1.319l-.904-.43v.003l.904.427zm.641-.735l.525.851.002-.001-.527-.85zm1.896 0l-.53.848.007.005.523-.853zm.641.735l-.905.425.003.007.902-.432zm-2.27.08l.819.573.002-.003-.821-.57zm-.244 1.007l-1-.004v.004h1zm1.612 1.237l.824.566.002-.004-.826-.562zm.24-1.014l1 .004v-.004h-1zm-.11-.015c0 .303-.052.52-.127.68l1.81.85c.222-.474.318-.992.318-1.53h-2zm-.127.68a.676.676 0 01-.26.307l1.053 1.7a2.673 2.673 0 001.017-1.157l-1.81-.85zm-.263.309a.76.76 0 01-.42.106v2c.525 0 1.029-.129 1.479-.41l-1.06-1.696zm-.42.106a.777.777 0 01-.424-.108l-1.045 1.706c.449.274.948.402 1.47.402v-2zm-.424-.108a.697.697 0 01-.267-.31l-1.8.873c.23.473.57.866 1.022 1.143l1.045-1.706zm-.266-.307a1.518 1.518 0 01-.132-.661l-2 .01c.002.533.104 1.047.33 1.518l1.802-.867zm-.132-.656V34.3h-2v.21h2zm0-.211c0-.3.053-.519.13-.68l-1.809-.855a3.562 3.562 0 00-.321 1.535h2zm.128-.678a.697.697 0 01.264-.314l-1.05-1.702a2.69 2.69 0 00-1.02 1.157l1.806.859zm.266-.315a.769.769 0 01.422-.108v-2c-.524 0-1.026.13-1.476.408l1.054 1.7zm.422-.108c.187 0 .316.043.417.106l1.059-1.696c-.45-.28-.951-.41-1.476-.41v2zm.424.11a.671.671 0 01.259.308l1.81-.85a2.667 2.667 0 00-1.024-1.163l-1.045 1.706zm.262.315c.077.161.13.377.13.673h2c0-.54-.098-1.06-.326-1.536l-1.804.863zm.13.673v.19h2v-.19h-2zm1.11-.003c0-.54-.092-1.116-.417-1.587l-1.647 1.135c-.005-.008.013.014.03.09.019.078.034.195.034.362h2zm-.417-1.587a1.781 1.781 0 00-1.509-.781v2c.016 0-.012.002-.059-.022a.266.266 0 01-.079-.062l1.647-1.135zm-1.509-.781a1.78 1.78 0 00-1.503.775l1.642 1.141a.262.262 0 01-.079.062c-.046.024-.075.022-.06.022v-2zm-1.501.772c-.328.467-.422 1.04-.424 1.577l2 .009c0-.165.016-.28.034-.355.018-.074.034-.093.028-.084L25.996 32.7zm-.424 1.581v.208h2v-.208h-2zm0 .208c0 .54.096 1.1.408 1.569l1.664-1.11c-.008-.012-.072-.127-.072-.459h-2zm.408 1.569c.354.532.905.805 1.523.805v-2c-.015 0 .015-.002.064.023a.264.264 0 01.056.04c.014.013.02.022.02.022l-1.663 1.11zm1.523.805c.603 0 1.148-.26 1.504-.78l-1.649-1.131a.274.274 0 01.082-.066c.049-.025.078-.023.063-.023v2zm1.506-.783c.318-.467.412-1.035.414-1.572l-2-.008c0 .165-.016.282-.034.36-.019.076-.036.1-.033.095l1.653 1.125zm.414-1.576v-.208h-2v.208h2zm2.566.521l-.609.794.009.006.6-.8zm-.633-.28l-.311.95.005.001.306-.952zm-.724-.294l-.475.88.475-.88zm-.533-1.673l-.811-.584-.002.001.813.583zm.56-.425l-.385-.923-.002.001.386.922zm1.634.015l-.423.906.006.003.417-.909zm.554.466l-.838.545.003.006.835-.551zm.2.686v1h1v-1h-1zm-.88 0h-1v1h1v-1zm-.184-.454l-.665.747.007.006.658-.753zm-1.02-.027l.602.799.008-.007-.61-.792zm.03.706l-.56.829.005.003.554-.832zm.618.264l-.29.957h.002l.288-.957zm1.016 2.261l.6.801.003-.002-.603-.798zm-2.024.135l-.41.912.005.003.405-.915zm-.618-.495l-.83.559.003.005.827-.564zm-.211-.726v-1h-1v1h1zm.881 0h1v-1h-1v1zm1.333.58l.583.813.009-.007-.591-.806zm1.176-.358c0-.433-.17-.877-.575-1.18l-1.2 1.6a.581.581 0 01-.177-.22.487.487 0 01-.048-.2h2zm-.567-1.174c-.264-.203-.62-.339-.936-.44l-.61 1.904c.13.042.223.078.285.105.07.031.073.04.044.018l1.217-1.587zm-.93-.438a3.63 3.63 0 01-.56-.223l-.95 1.76c.252.136.555.255.888.364l.621-1.901zm-.56-.223a.566.566 0 01-.2-.153v-.005a.14.14 0 01-.002-.02h-2c0 .906.537 1.551 1.252 1.938l.95-1.76zm-.201-.177v-.022l.002-.004v-.001l.003-.006-1.625-1.166c-.256.357-.38.768-.38 1.199h2zm.004-.031c.006-.008.033-.044.135-.087l-.773-1.845c-.383.16-.728.407-.984.763l1.622 1.169zm.133-.086c.106-.044.246-.076.436-.076v-2c-.416 0-.822.07-1.205.23l.768 1.846zm.436-.076a.91.91 0 01.39.073l.848-1.812a2.9 2.9 0 00-1.238-.26v2zm.397.076a.283.283 0 01.133.102l1.676-1.09a2.276 2.276 0 00-.975-.83l-.834 1.818zm.136.108a.22.22 0 01.034.135h2c0-.44-.117-.862-.365-1.237l-1.669 1.102zm1.034-.865h-.879v2h.88v-2zm.121 1c0-.423-.144-.873-.527-1.208l-1.315 1.507a.493.493 0 01-.13-.183.33.33 0 01-.028-.116h2zm-.52-1.202c-.362-.322-.802-.417-1.183-.417v2c.032 0 .026.005-.005-.005a.398.398 0 01-.14-.083l1.328-1.495zm-1.183-.417c-.344 0-.756.072-1.111.346l1.22 1.584a.394.394 0 01-.13.07c-.02.005-.017 0 .021 0v-2zm-1.103.34a1.425 1.425 0 00-.577 1.155h2a.559.559 0 01-.06.247.555.555 0 01-.159.194l-1.204-1.596zm-.577 1.155c0 .543.3.942.648 1.178l1.12-1.657a.503.503 0 01.143.158c.06.101.09.215.09.322h-2zm.654 1.181c.259.173.572.295.883.39l.579-1.915a1.563 1.563 0 01-.353-.139l-1.11 1.664zm.885.39c.432.13.62.257.682.318l1.396-1.433c-.395-.384-.935-.63-1.502-.8l-.576 1.914zm.682.318a.117.117 0 01.03.04.2.2 0 01.011.075h2c0-.589-.215-1.129-.645-1.548l-1.396 1.433zm.041.115c0 .03-.003.047-.004.055l-.002.006.003-.005-.018.017 1.205 1.596c.545-.412.816-1.006.816-1.669h-2zm-.018.07c-.054.04-.196.114-.529.114v2c.613 0 1.223-.135 1.727-.513l-1.198-1.601zm-.529.114c-.204 0-.363-.037-.492-.093l-.809 1.829c.411.181.85.264 1.301.264v-2zm-.486-.09a.452.452 0 01-.202-.147l-1.652 1.127c.262.385.625.66 1.034.843l.82-1.824zm-.199-.142c-.019-.029-.04-.072-.04-.168h-2c0 .455.119.895.38 1.285l1.66-1.117zm-1.04.832h.881v-2h-.881v2zm-.119-1c0 .44.14.937.57 1.296.394.33.878.41 1.274.41v-2c-.074 0-.103-.008-.1-.008a.325.325 0 01.11.064.455.455 0 01.128.176c.022.054.018.082.018.062h-2zm1.844 1.706c.328 0 .724-.064 1.072-.314l-1.165-1.625a.381.381 0 01.123-.061c.017-.005.01 0-.03 0v2zm1.08-.32c.39-.285.585-.71.585-1.164h-2a.58.58 0 01.233-.449l1.183 1.613zm4.276-3.598v1h1v-1h-1zm-1.307 0v-1h-1v1h1zm0 3.553v1h1v-1h-1zm-.879 0h-1v1h1v-1zm0-3.553h1v-1h-1v1zm-1.289 0h-1v1h1v-1zm0-.712v-1h-1v1h1zm3.475 0h1v-1h-1v1zm0-.288h-1.307v2h1.307v-2zm-2.307 1v3.553h2v-3.553h-2zm1 2.553h-.879v2h.88v-2zm.121 1v-3.553h-2v3.553h2zm-1-4.553H33.38v2h1.29v-2zm-.289 1v-.712h-2v.712h2zm-1 .288h3.475v-2H33.38v2zm2.475-1v.712h2v-.712h-2zm4.07 2.417v1h1v-1h-1zm-1.688 0v-1h-1v1h1zm0 1.142h-1v1h1v-1zm1.981 0h1v-1h-1v1zm0 .706v1h1v-1h-1zm-2.86 0h-1v1h1v-1zm0-4.265v-1h-1v1h1zm2.854 0h1v-1h-1v1zm0 .712v1h1v-1h-1zm-1.975 0v-1h-1v1h1zm0 1.016h-1v1h1v-1zm1.688 0h1v-1h-1v1zm0-.311h-1.688v2h1.688v-2zm-2.688 1v1.142h2v-1.142h-2zm1 2.142h1.981v-2h-1.98v2zm.981-1v.706h2v-.706h-2zm1-.294h-2.86v2h2.86v-2zm-1.86 1V32.26h-2v4.265h2zm-1-3.265h2.854v-2H37.36v2zm1.854-1v.712h2v-.712h-2zm1-.288h-1.975v2h1.975v-2zm-2.975 1v1.016h2v-1.016h-2zm1 2.016h1.688v-2h-1.688v2zm.688-1v.689h2v-.689h-2zm3.388.976l.89-.456-.279-.544h-.611v1zm-.7 0v-1h-1v1h1zm0 1.561v1h1v-1h-1zm-.88 0h-1v1h1v-1zm0-4.265v-1h-1v1h1zm2.971 2.018l-.838-.545-.002.002.84.543zm-.571.463l-.41-.912-.972.438.498.942.884-.468zm.923 1.743h1v-.248l-.116-.22-.884.468zm0 .041v1h1v-1h-1zm-.944 0l-.89.456.28.544h.61v-1zm-1.5-2.273h-1v1h1v-1zm1.222-.167l.677.736.006-.006-.683-.73zm.009-.94l-.713.7.006.007.707-.707zm-1.23-.173v-1h-1v1h1zm.7.992h-.7v2h.7v-2zm-1.7 1v1.561h2v-1.561h-2zm1 .561h-.88v2h.88v-2zm.12 1V32.26h-2v4.265h2zm-1-3.265h1.586v-2h-1.585v2zm1.586 0c.368 0 .499.083.53.11l1.27-1.546c-.514-.423-1.161-.564-1.8-.564v2zm.53.11a.07.07 0 01.025.029c.005.012.02.056.02.15h2c0-.656-.232-1.28-.775-1.725l-1.27 1.545zm.046.179c0 .073-.008.12-.015.148-.007.026-.014.035-.014.036l1.677 1.09c.256-.393.352-.838.352-1.274h-2zm-.03.186a.12.12 0 01-.027.027.53.53 0 01-.116.067l.822 1.824c.393-.177.75-.444 1-.832l-1.68-1.086zm-.616 1.474l.923 1.743 1.768-.935-.923-1.744-1.768.936zm.807 1.275v.041h2v-.04h-2zm1-.959h-.944v2h.944v-2zm-.053.544l-.8-1.561-1.78.912.8 1.561 1.78-.911zm-2.39-.817h.709v-2h-.71v2zm.709 0c.384 0 .828-.099 1.189-.43l-1.354-1.473a.415.415 0 01.149-.09c.034-.01.044-.007.016-.007v2zm1.195-.437c.362-.338.499-.779.499-1.196h-2c0-.003 0-.041.023-.099a.458.458 0 01.112-.165l1.366 1.46zm.499-1.196c0-.4-.121-.837-.466-1.182l-1.414 1.415a.446.446 0 01-.103-.16c-.018-.05-.017-.079-.017-.073h2zm-.46-1.175c-.373-.38-.857-.472-1.237-.472v2c.04 0 .032.005-.005-.007a.475.475 0 01-.184-.12l1.426-1.401zm-1.237-.472h-.707v2h.707v-2zm-1.707 1v1.28h2v-1.28h-2zm6.327 2.05v-1h-1v1h1zm0 1.503v1h1v-1h-1zm-.88 0h-1v1h1v-1zm0-4.265v-1h-1v1h1zm2.509.176l-.436.9.003.001.433-.901zm.562.5l-.856.517.002.004.854-.52zm-.234 1.726l.644.765-.644-.765zm-1.957-.351h-1v1h1v-1zm1.315-.165l-.664-.747-.006.005.67.742zm-.51-1.174l.018-1h-.018v1zm-.805 0v-1h-1v1h1zm-1 2.05v1.503h2v-1.502h-2zm1 .503h-.88v2h.88v-2zm.12 1V32.26h-2v4.265h2zm-1-3.265h1.665v-2H46.06v2zm1.665 0c.198 0 .325.036.408.076l.871-1.8a2.913 2.913 0 00-1.28-.276v2zm.41.077a.295.295 0 01.14.116l1.712-1.033a2.29 2.29 0 00-.986-.886l-.865 1.803zm.142.12a.39.39 0 01.05.215h2c0-.441-.107-.87-.342-1.256l-1.708 1.04zm.05.215c0 .16-.04.197-.075.226l1.29 1.529c.539-.456.785-1.08.785-1.755h-2zm-.075.225c-.049.042-.188.126-.542.126v2c.658 0 1.31-.157 1.831-.596l-1.289-1.53zm-.542.126h-.77v2h.77v-2zm-.77 1.288h.785v-2h-.785v2zm.785 0c.376 0 .83-.088 1.2-.422l-1.34-1.485a.42.42 0 01.151-.09c.028-.009.03-.003-.011-.003v2zm1.195-.417c.385-.342.52-.8.52-1.216h-2c0 .002 0-.037.023-.097a.485.485 0 01.128-.182l1.328 1.495zm.52-1.216c0-.419-.13-.85-.462-1.198l-1.446 1.381a.366.366 0 01-.078-.124c-.015-.042-.014-.066-.014-.06h2zm-.462-1.198c-.346-.362-.793-.5-1.215-.508l-.036 2c.012 0-.012.001-.056-.016a.396.396 0 01-.14-.095l1.447-1.38zm-1.233-.508h-.805v2h.805v-2zm-1.805 1v1.339h2v-1.34h-2zm6.56 1.705v1h1v-1h-1zm-1.687 0v-1h-1v1h1zm0 1.142h-1v1h1v-1zm1.98 0h1v-1h-1v1zm0 .706v1h1v-1h-1zm-2.86 0h-1v1h1v-1zm0-4.265v-1h-1v1h1zm2.854 0h1v-1h-1v1zm0 .712v1h1v-1h-1zm-1.974 0v-1h-1v1h1zm0 1.016h-1v1h1v-1zm1.687 0h1v-1h-1v1zm0-.311h-1.687v2h1.687v-2zm-2.687 1v1.142h2v-1.142h-2zm1 2.142h1.98v-2h-1.98v2zm.98-1v.706h2v-.706h-2zm1-.294h-2.86v2h2.86v-2zm-1.86 1V32.26h-2v4.265h2zm-1-3.265h2.854v-2h-2.853v2zm1.854-1v.712h2v-.712h-2zm1-.288h-1.974v2h1.974v-2zm-2.974 1v1.016h2v-1.016h-2zm1 2.016h1.687v-2h-1.687v2zm.687-1v.689h2v-.689h-2zm5.078-1.016v1h1v-1h-1zm-1.306 0v-1h-1v1h1zm0 3.553v1h1v-1h-1zm-.88 0h-1v1h1v-1zm0-3.553h1v-1h-1v1zm-1.288 0h-1v1h1v-1zm0-.712v-1h-1v1h1zm3.474 0h1v-1h-1v1zm0-.288h-1.306v2h1.306v-2zm-2.306 1v3.553h2v-3.553h-2zm1 2.553h-.88v2h.88v-2zm.12 1v-3.553h-2v3.553h2zm-1-4.553h-1.288v2h1.289v-2zm-.288 1v-.712h-2v.712h2zm-1 .288h3.474v-2h-3.474v2zm2.474-1v.712h2v-.712h-2zm4.07 2.417v1h1v-1h-1zm-1.687 0v-1h-1v1h1zm0 1.142h-1v1h1v-1zm1.98 0h1v-1h-1v1zm0 .706v1h1v-1h-1zm-2.859 0h-1v1h1v-1zm0-4.265v-1h-1v1h1zm2.854 0h1v-1h-1v1zm0 .712v1h1v-1h-1zm-1.975 0v-1h-1v1h1zm0 1.016h-1v1h1v-1zm1.688 0h1v-1h-1v1zm0-.311H57.96v2h1.688v-2zm-2.688 1v1.142h2v-1.142h-2zm1 2.142h1.98v-2h-1.98v2zm.98-1v.706h2v-.706h-2zm1-.294h-2.859v2h2.86v-2zm-1.859 1V32.26h-2v4.265h2zm-1-3.265h2.854v-2H57.08v2zm1.854-1v.712h2v-.712h-2zm1-.288H57.96v2h1.975v-2zm-2.975 1v1.016h2v-1.016h-2zm1 2.016h1.688v-2H57.96v2zm.688-1v.689h2v-.689h-2zm3.387.976l.89-.456-.278-.544h-.612v1zm-.7 0v-1h-1v1h1zm0 1.561v1h1v-1h-1zm-.879 0h-1v1h1v-1zm0-4.265v-1h-1v1h1zm2.971 2.018l-.838-.545-.002.002.84.543zm-.571.463l-.411-.912-.972.438.499.942.884-.468zm.922 1.743h1v-.248l-.116-.22-.884.468zm0 .041v1h1v-1h-1zm-.943 0l-.89.456.279.544h.611v-1zm-1.5-2.273h-1v1h1v-1zm1.222-.167l.677.736.006-.006-.683-.73zm.009-.94l-.714.7.007.007.707-.707zm-1.23-.173v-1h-1v1h1zm.7.992h-.7v2h.7v-2zm-1.7 1v1.561h2v-1.561h-2zm1 .561h-.88v2h.88v-2zm.12 1V32.26h-2v4.265h2zm-1-3.265h1.585v-2h-1.585v2zm1.585 0c.369 0 .5.083.532.11l1.269-1.546c-.515-.423-1.162-.564-1.8-.564v2zm.532.11c.016.013.02.02.023.029a.39.39 0 01.021.15h2c0-.656-.232-1.28-.775-1.725l-1.27 1.545zm.044.179c0 .073-.008.12-.015.148-.007.026-.013.035-.013.036l1.676 1.09c.256-.393.352-.838.352-1.274h-2zm-.03.186a.12.12 0 01-.026.027.53.53 0 01-.116.067l.821 1.824c.393-.177.75-.444 1-.832l-1.679-1.086zm-.615 1.474l.923 1.743 1.767-.935-.923-1.744-1.767.936zm.806 1.275v.041h2v-.04h-2zm1-.959h-.943v2h.944v-2zm-.053.544l-.8-1.561-1.78.912.8 1.561 1.78-.911zm-2.39-.817h.71v-2h-.71v2zm.71 0c.383 0 .828-.099 1.189-.43l-1.354-1.473a.413.413 0 01.148-.09c.035-.01.044-.007.016-.007v2zm1.195-.437c.361-.338.498-.779.498-1.196h-2c0-.003.001-.041.023-.099a.458.458 0 01.113-.165l1.366 1.46zm.498-1.196c0-.4-.12-.837-.465-1.182l-1.415 1.415a.447.447 0 01-.102-.16c-.018-.05-.017-.079-.017-.073h2zm-.46-1.175c-.373-.38-.856-.472-1.237-.472v2c.04 0 .033.005-.005-.007a.476.476 0 01-.184-.12l1.427-1.401zm-1.237-.472h-.706v2h.706v-2zm-1.706 1v1.28h2v-1.28h-2zm5.99 2.053l-.609.794.008.006.6-.8zm-.633-.28l-.311.95.005.001.306-.952zm-.724-.294l-.475.88.475-.88zm-.533-1.673l-.812-.584v.001l.812.583zm.56-.425l-.385-.923-.002.001.386.922zm1.634.015l-.423.906.006.003.417-.909zm.554.466l-.838.545.003.006.835-.551zm.199.686v1h1v-1h-1zm-.879 0h-1v1h1v-1zm-.184-.454l-.665.747.007.006.658-.753zm-1.02-.027l.602.799.008-.007-.61-.792zm.03.706l-.56.829.005.003.554-.832zm.618.264l-.29.957h.002l.287-.957zm1.016 2.261l.6.801.003-.002-.603-.798zm-2.024.135l-.41.912.005.003.405-.915zm-.618-.495l-.83.559.004.005.825-.564zm-.211-.726v-1h-1v1h1zm.881 0h1v-1h-1v1zm1.333.58l.583.813.009-.007-.592-.806zm1.176-.358c0-.433-.17-.877-.576-1.18l-1.2 1.6a.581.581 0 01-.176-.22.488.488 0 01-.048-.2h2zm-.567-1.174c-.265-.203-.62-.339-.936-.44l-.61 1.904c.13.042.222.078.285.105.07.031.073.04.044.018l1.217-1.587zm-.93-.438a3.63 3.63 0 01-.56-.223l-.95 1.76c.252.136.556.255.888.364l.621-1.901zm-.56-.223a.567.567 0 01-.196-.147l-.003-.006-.001-.005a.134.134 0 01-.002-.02h-2c0 .906.536 1.551 1.252 1.938l.95-1.76zm-.202-.177a.16.16 0 01.003-.027l.003-.006-1.625-1.166a2.03 2.03 0 00-.38 1.199h2zm.005-.031c.006-.008.033-.044.135-.087l-.773-1.845c-.383.16-.729.407-.985.763l1.623 1.169zm.132-.086c.106-.044.247-.076.437-.076v-2c-.416 0-.822.07-1.205.23l.768 1.846zm.437-.076a.91.91 0 01.39.073l.847-1.812a2.9 2.9 0 00-1.237-.26v2zm.397.076a.284.284 0 01.133.102l1.676-1.09a2.276 2.276 0 00-.975-.83l-.834 1.818zm.136.108a.22.22 0 01.034.135h2c0-.44-.117-.862-.365-1.237l-1.669 1.102zm1.034-.865h-.879v2h.879v-2zm.121 1c0-.423-.144-.873-.527-1.208l-1.315 1.507a.493.493 0 01-.13-.183.333.333 0 01-.028-.116h2zm-.52-1.202c-.362-.322-.803-.417-1.183-.417v2c.031 0 .025.005-.005-.005a.4.4 0 01-.14-.083l1.328-1.495zM65.8 31.9c-.344 0-.756.072-1.111.346l1.22 1.584a.395.395 0 01-.13.07c-.021.005-.017 0 .021 0v-2zm-1.103.34a1.425 1.425 0 00-.577 1.155h2a.559.559 0 01-.06.247.554.554 0 01-.159.194l-1.204-1.596zm-.577 1.155c0 .543.3.942.648 1.178l1.12-1.657a.502.502 0 01.143.158c.06.101.09.215.09.322h-2zm.654 1.181c.259.173.572.295.883.39l.579-1.915a1.565 1.565 0 01-.353-.139l-1.11 1.664zm.885.39c.432.13.62.257.682.318l1.396-1.433c-.395-.384-.935-.63-1.502-.8l-.576 1.914zm.682.318a.117.117 0 01.03.04.2.2 0 01.011.075h2c0-.589-.215-1.129-.645-1.548l-1.396 1.433zm.041.115c0 .03-.003.047-.004.055l-.002.006.003-.005s-.005.006-.019.017l1.206 1.596c.545-.412.816-1.006.816-1.669h-2zm-.018.07c-.054.04-.197.114-.529.114v2c.613 0 1.223-.135 1.727-.513l-1.198-1.601zm-.529.114c-.205 0-.364-.037-.492-.093l-.809 1.829c.411.181.85.264 1.301.264v-2zm-.486-.09a.452.452 0 01-.202-.147l-1.653 1.127c.263.385.626.66 1.035.843l.82-1.824zm-.199-.142c-.02-.029-.04-.072-.04-.168h-2c0 .455.119.895.38 1.285l1.66-1.117zm-1.04.832h.881v-2h-.881v2zm-.119-1c0 .44.14.937.57 1.296.394.33.878.41 1.274.41v-2c-.074 0-.103-.008-.1-.008a.323.323 0 01.11.064.455.455 0 01.128.176c.022.054.018.082.018.062h-2zm1.844 1.706c.328 0 .724-.064 1.072-.314l-1.165-1.625a.383.383 0 01.123-.061c.017-.005.01 0-.03 0v2zm1.08-.32c.39-.285.585-.71.585-1.164h-2a.581.581 0 01.233-.449l1.183 1.613z" fill="#AFB1B8"/></svg>